::::::: UYIRVANI PRESENTS :::::::

 
http://i.imgur.com/LkXEu22.jpg


Commando 2013 Hindi DVDSCR-Rip XviD-UYIRVANI


IMDB: WWW.imdb.com/title/tt2658126


Source: MM DVDScr


General:

Format                           : AVI
Format/Info                      : Audio Video Interleave
File size                        : 696 MiB
Duration                         : 1h 58mn
Overall bit rate                 : 819 Kbps
Writing application              : VirtualDubMod 1.5.10.2 (build 2540/release)
Writing library                  : VirtualDubMod build 2540/release

Video
ID                               : 0
Format                           : MPEG-4 Visual
Format profile                   : Advanced Simple@L5
Format settings, BVOP            : Yes
Format settings, QPel            : No
Format settings, GMC             : No warppoints
Format settings, Matrix          : Default (H.263)
Codec ID                         : XVID
Codec ID/Hint                    : XviD
Duration                         : 1h 58mn
Bit rate                         : 729 Kbps
Width                            : 624 pixels
Height                           : 288 pixels
Display aspect ratio             : 2.2:1
Frame rate                       : 23.976 fps
Color space                      : YUV
Chroma subsampling               : 4:2:0
Bit depth                        : 8 bits
Scan type                        : Progressive
Bits/(Pixel*Frame)               : 0.169
Stream size                      : 620 MiB (89%)
Writing library                  : XviD 1.2.1 (UTC 2008-12-04)

Audio
ID                               : 1
Format                           : MPEG Audio
Format version                   : Version 1
Format profile                   : Layer 3
Mode                             : Joint stereo
Mode extension                   : MS Stereo
Codec ID                         : 55
Codec ID/Hint                    : MP3
Duration                         : 1h 58mn
Bit rate mode                    : Constant
Bit rate                         : 80.0 Kbps
Channel(s)                       : 2 channels
Sampling rate                    : 32.0 KHz
Stream size                      : 68.0 MiB (10%)
Alignment                        : Aligned on interleaves
Interleave, duration             : 42 ms (1.00 video frame)
Interleave, preload duration     : 504 ms
Writing library                  : LAME3.99r
Encoding settings                : -m j -V 4 -q 2 -lowpass 13.5 -b 80


Greetz and Respect:

Usabit | Scene | Arenabg | GameWorks | UnKnOwN | UYIRVANI | RuToR | SuReNo 
TvTeam | Mr.Stifmeister | azaq318 | DUQA | Acesan8s | SaM | Oziman | BOZX 
{Wasal} | adapa | randompirate | Agricola | SteRipper | neon | hiest 
blackjesus | Sceneline | S4A | RooT and all other friend :)


Poster:

 
http://i.imgur.com/oF6pp6s.jpg


Screenshots:

 
http://i.imgur.com/3X7NVkB.png

 
http://i.imgur.com/niW1Por.png

 
http://i.imgur.com/aMI64bA.png


SEED AND ENJOY!